<?xml version="1.0"?>
<svg width="512" height="512" xmlns="http://www.w3.org/2000/svg" xmlns:svg="http://www.w3.org/2000/svg">
 <defs>
  <linearGradient id="gradient_0" x1="1" x2="0" y1="0.55" y2="0.55">
   <stop offset="0" stop-color="#2C0387"/>
   <stop offset="1" stop-color="#6105F5"/>
  </linearGradient>
 </defs>
 <defs>
  <linearGradient id="gradient_1" x1="0.75" x2="0.24" y1="-0.36" y2="0.71">
   <stop offset="0" stop-color="#CACDF5"/>
   <stop offset="1" stop-color="white"/>
  </linearGradient>
 </defs>
 <defs>
  <linearGradient id="gradient_2" x1="-0.06" x2="0.99" y1="0.47" y2="0.61">
   <stop offset="0" stop-color="#4D17B7"/>
   <stop offset="1" stop-color="#8208FF"/>
  </linearGradient>
 </defs>
 <defs>
  <linearGradient id="gradient_3" x1="0.57" x2="0.47" y1="0.98" y2="0.07">
   <stop offset="0" stop-color="#DBC7F9"/>
   <stop offset="1" stop-color="#FFFFFE"/>
  </linearGradient>
 </defs>
 <g class="layer">
  <title>Layer 1</title>
  <path d="m91.28,20.22l1.09,-0.05l54.91,-0.09l109.28,0.1l356.05,-0.1l134.04,-0.04l49.15,0.27l89.9,-0.23l31.37,0.08c7,0.04 14.11,-0.15 21.08,0.59c15.41,1.64 31.12,8.7 42.48,19.25c13.86,12.89 20.61,30.34 21.26,49.01l0.21,61.05l0.05,101.54l0.02,369.15l0.05,193.98l-0.2,77.06c-0.04,14.72 0.98,29.82 -0.59,44.46c-1.4,13.03 -6.95,25.84 -15.95,35.44c-9.64,10.3 -21.57,18.06 -35.48,21.2c-5.41,1.23 -10.97,1.44 -16.49,1.62l-42.65,-0.32l-101.86,-0.16l-433.03,0.11l-193.19,-0.06l-48.72,0.12c-11.51,0.12 -23.21,0.89 -34.65,-0.38c-11.25,-1.26 -24.07,-7.04 -32.52,-14.54c-14.09,-12.5 -24.92,-29.75 -25.79,-49.03l-0.15,-60.5l-0.01,-104.36l-0.04,-353.17l0.02,-217.47l0.06,-73.47c0.03,-12.02 -0.82,-24.63 0.31,-36.57c1.34,-14.18 6.63,-29.76 16.4,-40.39c11.07,-12.03 26.31,-20.68 42.52,-23.39c3.59,-0.6 7.44,-0.55 11.07,-0.71z" fill="#131127" id="svg_2" transform="scale(0.5 0.5)"/>
  <path d="m239.49,348.66l272.91,-169.82l72.26,44.98l132.34,83.08l22.5,14.59l32.93,21.45c2.98,2.14 6.02,3.43 8.84,5.94c0.96,0.96 4.45,3.84 4.75,5c0.55,2.11 0.21,5.59 0.27,7.82l0.26,32.17l0.46,190.17l-0.4,57.19c-0.12,5.66 0.6,12.52 -0.41,18c-7.43,7.15 -16.28,11.63 -24.72,17.38l-19.48,13.51l-65.61,41.06c-4.39,2.76 -8.31,6.14 -12.68,8.93l-23.01,14.15l-29.57,19.14l-10.26,6l-9.37,6.59l-22.17,14.36l-38.9,25.15c-4.85,3.19 -9.52,4.82 -13.76,9.02c-1.59,1.03 -2.51,1.57 -4.42,1.63c-5.71,-4.69 -12.59,-7.96 -18.86,-11.88l-43.97,-27.53l-66.89,-43.23l-34.75,-21.5l-62.86,-41.51c-15.61,-10.33 -32.25,-19.28 -47.35,-30.38l-0.51,-308.62c0.25,-1.52 1.26,-2.02 2.43,-2.84z" fill="url(#gradient_0)" id="svg_3" transform="scale(0.5 0.5)"/>
  <path d="m509.3,826.33l1.22,-0.22c1.59,-0.45 2.68,-0.59 4.33,-0.61l0.65,0c0.6,-0.95 0.68,-2.19 0.89,-3.29c0.03,3.28 0.41,7.07 -0.44,10.23l-1.95,1.46c-1.54,0.09 -2.09,-0.04 -3.25,-1.11c-1.63,-1.51 -1.39,-4.41 -1.45,-6.46z" fill="#CEC2F8" id="svg_4" transform="scale(0.5 0.5)"/>
  <path d="m510.19,760.42c1.07,2.25 0.75,5.54 2.56,7.1l1.25,-0.56c0.29,-0.46 1.07,-1.42 1.18,-1.9c0.34,-1.57 -0.3,-3.06 0.43,-4.66l0.3,-0.48l0.48,62.29c-0.21,1.1 -0.29,2.34 -0.89,3.29l-0.65,0c-1.65,0.02 -2.74,0.16 -4.33,0.61l-1.22,0.22c0.37,-4.99 0.15,-10.18 0.19,-15.19l0.09,-29.74c-0.03,-6.95 -0.47,-14.1 0.61,-20.98z" fill="#D8ACFF" id="svg_5" transform="scale(0.5 0.5)"/>
  <path d="m703.38,632.23l10.67,-6.54l5.28,2.56c-0.1,1.54 -0.62,2.22 -1.78,3.31c-2.33,2.19 -5.19,3.3 -7.89,4.89l-9.22,5.8l-11.76,8c-2.93,2.09 -5.74,4.42 -9.21,5.58c-2.84,1.87 -5.28,4.23 -8.47,5.27c-1.77,0.58 -3.05,2.15 -4.48,3.28c-1.48,1.18 -3.23,2.11 -4.85,3.07l-1.15,-1c-1.08,-1.32 0.46,-5.58 0.91,-7.24c6.05,-3.5 11.76,-8.47 18.04,-11.44c2.19,-2.16 5.48,-3.82 8.1,-5.47l15.81,-10.07z" fill="#CEC2F8" id="svg_6" transform="scale(0.5 0.5)"/>
  <path d="m679.47,647.77l0.87,-0.12c1.58,-0.23 2.74,-0.69 4.16,-1.41l0.78,-0.37c0.68,-0.34 1.11,-0.69 1.72,-1.12l2.22,-1.5c1.14,-0.76 2.36,-1.33 3.51,-2.08c0.99,-0.63 1.89,-0.6 3.02,-0.62l1.42,0.84c-0.06,1.14 -0.4,1.7 -1.22,2.49c-1.16,1.09 -2.72,1.87 -4.21,2.37c-1.1,0.37 -1.76,0.95 -2.74,1.5l-0.72,0.33c-0.94,0.47 -1.24,1.18 -2.03,1.67l-0.75,0.25l-1.73,1.38c-0.69,0.57 -1.28,0.91 -2.02,1.37c-1.6,1.02 -1.65,1.37 -2.28,3.08c-2.84,1.87 -5.28,4.23 -8.47,5.27c-1.77,0.58 -3.05,2.15 -4.48,3.28c-1.48,1.18 -3.23,2.11 -4.85,3.07l-1.15,-1c-1.08,-1.32 0.46,-5.58 0.91,-7.24c6.05,-3.5 11.76,-8.47 18.04,-11.44z" fill="#DAD6F9" id="svg_7" transform="scale(0.5 0.5)"/>
  <path d="m510.19,760.42c-1.93,-2.23 -4.75,-3.75 -7.24,-5.31l-12.26,-7.74l-51.07,-33.47l-11.59,-6.66l-32.7,-21.7l-24.29,-14.89l-38.42,-25.02l-23.87,-15.34c-2.48,-1.56 -6.14,-2.64 -8,-4.89c0.47,-1.93 3.05,-3.95 4.44,-5.38c5.11,2.13 9.92,6.18 14.6,9.19l16.19,9.93l57.35,36.89l36.16,22.81l15.39,10.41l46.12,29.82l14.09,8.87c2.77,1.69 5.8,3.18 8.2,5.38l0.82,-0.32c5.93,-1.83 11.06,-6.3 16.18,-9.68l21.47,-13.94l61.49,-38.99l40.68,-26.28l7.5,-4.9c-0.45,1.66 -1.99,5.92 -0.91,7.24l1.15,1c-3.06,2.13 -6.39,4.29 -9.77,5.85l-135.99,86.62l-0.3,0.48c-0.73,1.6 -0.09,3.09 -0.43,4.66c-0.11,0.48 -0.89,1.44 -1.18,1.9l-1.25,0.56c-1.81,-1.56 -1.49,-4.85 -2.56,-7.1z" fill="url(#gradient_1)" id="svg_8" transform="scale(0.5 0.5)"/>
  <path d="m661.43,659.21c-0.45,1.66 -1.99,5.92 -0.91,7.24l1.15,1c-3.06,2.13 -6.39,4.29 -9.77,5.85c0.65,-1.06 1.74,-1.6 2.33,-2.55c0.4,-0.65 0.15,-1.05 0.02,-1.72c0.93,-0.72 1.03,-1.43 1.34,-2.53c-0.4,-1.24 -0.7,-1.47 -1.66,-2.39l7.5,-4.9z" fill="#CEC2F8" id="svg_9" transform="scale(0.5 0.5)"/>
  <path d="m239.49,348.66l272.91,-169.82l72.26,44.98l132.34,83.08l22.5,14.59l32.93,21.45c2.98,2.14 6.02,3.43 8.84,5.94l-54.02,34.1l-210.14,-139.42c-1.05,-0.72 -2.17,-1.93 -3.45,-1.75l-215.79,141.21l-58.38,-34.36z" fill="#F5FBFD" id="svg_10" transform="scale(0.5 0.5)"/>
  <path d="m332.07,607.17l-22.7,13.81c-1.11,-7.77 -0.36,-16.34 -0.36,-24.23l0.11,-52.88l0.29,-95.62l0.03,-31.4c0.03,-6.49 -0.31,-13.15 0.58,-19.59l68.46,-44.63l28.32,-18.84l55.7,-35.57l20.72,-13.81l14.64,-9.06l8.39,-5.85c1.57,-1.15 3.32,-2.85 5.06,-3.7c0.57,-0.28 1.03,-0.27 1.65,-0.28l0.52,0.66c2.97,3.56 9.7,6.03 13.69,8.64l23.94,16.15l24.36,15.78l48.4,31.74l11.38,8.3l18.72,12.22l23.53,15.95l21.49,13.49c3.26,2.04 8.07,4.11 10.36,7.19c0.85,1.16 0.84,2.44 0.85,3.86l-0.08,62.9l0.34,46.9l-0.42,29.71l0.23,50.33l0.13,30.3l-0.29,4.19c-0.07,1.82 -2.29,4.13 -3.63,5.3l-1.48,1.27c-0.69,0.59 -1.12,1.09 -1.62,1.83l-15.81,10.07c-2.62,1.65 -5.91,3.31 -8.1,5.47c-6.28,2.97 -11.99,7.94 -18.04,11.44l-7.5,4.9l-40.68,26.28l-61.49,38.99l-21.47,13.94c-5.12,3.38 -10.25,7.85 -16.18,9.68l-1.17,-0.95c-0.74,-1.72 -0.86,-3.27 -0.93,-5.11l0.23,-28.07l-0.64,-46.09c-4.93,-5.21 -11.31,-7.92 -17.26,-11.73l-10.49,-7.35l-40.1,-24.33l-56.09,-34.78c-5.94,-3.5 -11.56,-7.76 -17.87,-10.55c-7.84,3.28 -15.81,9.05 -23,13.67c-4.88,3.14 -10.05,6.02 -14.72,9.46z" fill="#131127" id="svg_11" transform="scale(0.5 0.5)"/>
  <path d="m514.96,346.88l132.75,90.85c-2.45,2.57 -8.28,4.94 -11.41,6.88l-18.06,11.77l-47.08,29.31l-15.55,-10.24c-3.24,-2.17 -6.18,-4.69 -9.5,-6.75c-10.54,-6.52 -22.28,-12.47 -31.67,-20.6l0.52,-101.22z" fill="url(#gradient_2)" id="svg_12" transform="scale(0.5 0.5)"/>
  <path d="m506.99,346.75c0.89,1.14 0.82,2.27 0.89,3.7c0.37,8.16 -0.23,16.52 -0.28,24.7l-0.15,53.25c-0.04,6.95 -0.53,13.79 -0.16,20.75c-1.96,1.9 -4.59,3.2 -6.95,4.56l-14.42,8.21l-21.42,13.11c-4.61,2.78 -8.74,5.66 -13.87,7.46l-46.25,-28.56l-13.77,-8.58c-5.76,-3.52 -11.37,-6.72 -16.71,-10.92c1.41,-1.97 4.87,-3.73 6.91,-5.11l28.39,-18.06l29.61,-19.64l42.17,-27.42l26.01,-17.45z" fill="url(#gradient_3)" id="svg_13" transform="scale(0.5 0.5)"/>
 </g>
</svg>